<svg width="57" height="71" viewBox="0 0 57 71" fill="none" xmlns="http://www.w3.org/2000/svg">
<path d="M26.4338 70.3403C27.0367 70.7693 27.7591 71 28.5 71C29.2409 71 29.9633 70.7693 30.5662 70.3403C31.6492 69.577 57.103 51.2624 56.9997 28.4002C56.9997 12.7411 44.214 0 28.5 0C12.786 0 0.000313631 12.7411 0.000313631 28.3825C-0.102998 51.2624 25.3508 69.577 26.4338 70.3403ZM28.5 7.10006C40.2882 7.10006 49.8748 16.6532 49.8748 28.418C49.9496 44.173 34.2427 58.3199 28.5 62.9598C22.7609 58.3163 7.05042 44.1659 7.12524 28.4002C7.12524 16.6532 16.7118 7.10006 28.5 7.10006Z" fill="white"/>
</svg>
